<?xml version="1.0" encoding="UTF-8"?>
<svg id="Layer_1" xmlns="http://www.w3.org/2000/svg" viewBox="0 0 100 100">
  <defs>
    <style>
      .cls-1 {
        fill: #e99c35;
      }
    </style>
  </defs>
  <path class="cls-1" d="M87.11,50.38c1-.31,1.95-.72,2.83-1.21,2.42-1.35,4.31-3.23,5.67-5.65,1.36-2.42,2.04-5.25,2.04-8.48s-.68-6.09-2.02-8.5c-1.35-2.41-3.24-4.29-5.67-5.64-2.44-1.35-5.28-2.02-8.54-2.02h-22.2v.04H16.96c-4.77,0-8.6,1.31-11.48,3.94-2.88,2.63-4.33,6.11-4.33,10.46v1.32c0,2.21.6,4.31,1.81,6.31,1.2,2,2.78,3.53,4.73,4.58-2.33,1.23-4.2,3.05-5.6,5.47-1.4,2.41-2.1,4.99-2.1,7.73v.91c0,3.07.7,5.74,2.12,8.03,1.41,2.28,3.38,4.06,5.92,5.31,2.54,1.26,5.52,1.88,8.93,1.88s6.39-.63,8.93-1.88c2.54-1.26,4.51-3.03,5.93-5.31,1.41-2.29,2.12-4.96,2.12-8.03v-.91c0-2.74-.71-5.31-2.13-7.73-1.42-2.41-3.32-4.23-5.68-5.47,2-1.03,3.61-2.54,4.83-4.52,1.22-1.98,1.83-4.11,1.83-6.37v-1.32c0-2.63-.53-4.94-1.58-6.94h9.54v48.47h7.85V26.38h10.64v48.47h7.85v-23.66h11.69l11.94,23.66h9.31l-12.89-24.47ZM26.12,59.06c0,2.51-.84,4.54-2.52,6.09-1.68,1.55-3.89,2.32-6.64,2.32s-4.96-.76-6.64-2.28c-1.68-1.52-2.52-3.54-2.52-6.05v-.57c0-2.56.84-4.62,2.52-6.16,1.68-1.55,3.89-2.32,6.64-2.32s4.96.77,6.64,2.32c1.68,1.55,2.52,3.59,2.52,6.13v.53ZM22.74,28.43c1.46,1.42,2.19,3.3,2.19,5.64v.53c0,2.44-.73,4.4-2.19,5.88s-3.38,2.22-5.77,2.22-4.31-.74-5.77-2.21c-1.46-1.47-2.19-3.41-2.19-5.82v-.57c0-2.36.73-4.25,2.19-5.67,1.46-1.42,3.39-2.13,5.77-2.13.45,0,.89.03,1.31.08,1.79.22,3.28.9,4.46,2.05ZM81.73,43.73h-14.66v-17.39h14.66c2.28,0,4.12.8,5.5,2.38,1.39,1.59,2.08,3.69,2.08,6.31s-.69,4.72-2.08,6.31c-1.39,1.59-3.22,2.39-5.5,2.39Z"/>
</svg>